<?xml version="1.0" encoding="UTF-8"?>
<svg width="1440px" height="915px" viewBox="0 0 1440 915" version="1.1" xmlns="http://www.w3.org/2000/svg" xmlns:xlink="http://www.w3.org/1999/xlink">
    <!-- Generator: Sketch 51.2 (57519) - http://www.bohemiancoding.com/sketch -->
    <title>usa-vaiksed</title>
    <desc>Created with Sketch.</desc>
    <defs>
        <linearGradient x1="31.1114997%" y1="3.76818253%" x2="31.1114997%" y2="68.4909497%" id="linearGradient-1">
            <stop stop-color="#8192AE" offset="0%"></stop>
            <stop stop-color="#E8C7BE" offset="45.2015854%"></stop>
            <stop stop-color="#F7F0EC" offset="74.5152508%"></stop>
            <stop stop-color="#E0B0A4" offset="100%"></stop>
        </linearGradient>
        <linearGradient x1="50%" y1="0%" x2="50%" y2="100%" id="linearGradient-2">
            <stop stop-color="#F6CCBE" offset="0%"></stop>
            <stop stop-color="#EA9D89" offset="100%"></stop>
        </linearGradient>
        <linearGradient x1="50%" y1="31.1603971%" x2="50%" y2="100%" id="linearGradient-3">
            <stop stop-color="#637396" offset="0%"></stop>
            <stop stop-color="#252C3B" offset="100%"></stop>
        </linearGradient>
        <linearGradient x1="72.9632148%" y1="13.653403%" x2="25.6721394%" y2="100%" id="linearGradient-4">
            <stop stop-color="#354C5E" stop-opacity="0" offset="0%"></stop>
            <stop stop-color="#182530" offset="100%"></stop>
        </linearGradient>
        <linearGradient x1="21.6819575%" y1="10.4002304%" x2="10.1563001%" y2="100%" id="linearGradient-5">
            <stop stop-color="#FFFFFF" stop-opacity="0" offset="0%"></stop>
            <stop stop-color="#FFFFFF" offset="100%"></stop>
        </linearGradient>
        <linearGradient x1="44.0690964%" y1="86.3942584%" x2="44.0690964%" y2="18.7952455%" id="linearGradient-6">
            <stop stop-color="#012968" offset="0%"></stop>
            <stop stop-color="#5490CF" offset="100%"></stop>
        </linearGradient>
        <linearGradient x1="50%" y1="100%" x2="50%" y2="0%" id="linearGradient-7">
            <stop stop-color="#C395A5" stop-opacity="0" offset="0%"></stop>
            <stop stop-color="#C395A5" offset="100%"></stop>
        </linearGradient>
        <linearGradient x1="19.9936263%" y1="9.2992435%" x2="-3.9975785%" y2="13.2819757%" id="linearGradient-8">
            <stop stop-color="#FFFFFF" stop-opacity="0" offset="0%"></stop>
            <stop stop-color="#FFFFFF" stop-opacity="0.3" offset="100%"></stop>
        </linearGradient>
        <linearGradient x1="19.3275558%" y1="8.83205611%" x2="-3.9975785%" y2="13.2819757%" id="linearGradient-9">
            <stop stop-color="#FFFFFF" stop-opacity="0" offset="0%"></stop>
            <stop stop-color="#FFFFFF" stop-opacity="0.3" offset="100%"></stop>
        </linearGradient>
        <linearGradient x1="30.6763737%" y1="17.2318426%" x2="-16.45753%" y2="14.8299955%" id="linearGradient-10">
            <stop stop-color="#FFFFFF" stop-opacity="0" offset="0%"></stop>
            <stop stop-color="#FFFFFF" stop-opacity="0.3" offset="100%"></stop>
        </linearGradient>
        <linearGradient x1="14.6819124%" y1="12.4762719%" x2="-16.45753%" y2="14.8299955%" id="linearGradient-11">
            <stop stop-color="#FFFFFF" stop-opacity="0" offset="0%"></stop>
            <stop stop-color="#FFFFFF" stop-opacity="0.3" offset="100%"></stop>
        </linearGradient>
    </defs>
    <g id="usa-vaiksed" stroke="none" stroke-width="1" fill="none" fill-rule="evenodd">
        <rect fill="#FFFFFF" x="0" y="0" width="1440" height="915"></rect>
        <rect id="Mask" fill="url(#linearGradient-1)" x="0" y="0" width="1440" height="915"></rect>
        <rect id="Rectangle" fill="#5B6B7B" x="0" y="685" width="1440" height="233"></rect>
        <rect id="Rectangle" fill="url(#linearGradient-2)" opacity="0.625344669" x="0" y="685" width="1440" height="234"></rect>
        <g id="Group-3" opacity="0.586799173" transform="translate(592.000000, 732.000000) rotate(-90.000000) translate(-592.000000, -732.000000) translate(569.000000, 654.000000)" fill="#FFFFFF">
            <path d="M22.9997579,156 C22.6956256,156 22.4016634,155.617948 22.1769543,154.921837 C21.6950887,153.429244 20.4151182,149.466266 20.00638,148.7054 C19.2542823,147.305083 18.4024214,146.152452 17.2425541,144.965825 C16.2589672,143.96051 15.2356688,143.146222 14.2012318,142.545623 L14.0670843,142.467918 C13.1861662,141.957976 12.3541612,141.473936 11.5119861,141.224631 C10.0387851,140.787537 8.47841238,140.21446 7.01344423,138.438566 C5.15862505,136.189964 3.51689214,131.621531 1.99380955,124.467772 C0.689140391,118.345229 0,110.943784 0,103.064774 C0,100.722279 0.066831605,98.3441677 0.198557667,96.0016719 C0.240206348,95.2942284 0.291056483,94.5139361 0.353529505,93.6446063 C0.817960731,87.577105 1.49450966,81.6180675 2.31489183,76.3535226 C2.32748329,76.2741983 2.34055904,76.194874 2.35460336,76.1171685 C3.16190978,71.6847196 3.57161657,66.2000092 3.57161657,59.8135918 C3.57161657,51.7856465 2.61902406,44.2854507 0.889635206,38.6938954 L0.442154024,37.3097669 C0.200979102,36.5634707 0.0610201611,35.5209224 0.0547244302,34.4217139 C0.0479444123,33.3225054 0.175796178,32.2621497 0.407769648,31.4834762 L8.55396115,4.17000714 C9.00725378,2.64827522 9.73755856,2.57704521 10.217487,4.00812076 L10.2814129,4.19914669 C11.8136969,9.08163974 13.7823235,11.7203876 15.8555561,11.7203876 C17.7830184,11.7203876 19.6484919,9.39246158 21.1081329,5.16884607 C21.2340475,4.7835565 21.7042902,2.94938388 22.0621782,1.48754991 C22.2941517,0.540514624 22.6273412,-0.0325631417 23.0079907,0.00143299691 C23.3741117,0.00952731563 23.7194083,0.572891899 23.9475075,1.52964037 C24.2434069,2.77454659 24.7494868,4.45816489 24.9930831,5.23198176 C26.4493341,9.41674453 28.3056061,11.7203876 30.2233826,11.7203876 C32.296131,11.7203876 34.2657262,9.08163974 35.7679844,4.28980306 L35.8648418,3.96603031 C36.3379902,2.39087588 37.1041322,2.39411361 37.5758278,3.97412463 L45.5927146,30.8181232 C45.8300153,31.6129853 45.957867,32.7040995 45.9457599,33.8259721 C45.9336527,34.9494635 45.7820709,36.0049627 45.5278202,36.7399268 L45.2633995,37.5040305 C43.3088172,43.1117745 42.1896299,51.2400894 42.1896299,59.8135918 C42.1896299,65.2125023 42.6322683,70.4932359 43.4700848,75.0810957 C43.9320945,77.6097609 44.2609254,80.2841238 44.5781334,82.8726869 L44.6008949,83.0572374 C45.3331368,89.014656 45.7520451,93.9732356 45.9196084,98.661465 C45.9728799,100.145963 46,101.628842 46,103.064774 C46,106.59066 45.8275938,110.543925 45.5137759,114.199319 C44.8754856,121.626666 43.5122177,127.292689 42.4811707,130.73925 C41.7484445,133.19021 40.9387166,135.15551 40.0757172,136.580111 C39.6621361,137.263271 39.2088435,137.875202 38.6892036,138.451517 C38.0329947,139.180006 37.3874401,139.898781 36.6484182,140.233886 C36.2934358,140.394154 35.9370006,140.500999 35.5810496,140.606225 C35.2682002,140.700119 34.9558351,140.790775 34.6449229,140.929997 C33.5334842,141.422132 32.567816,141.93855 31.6912565,142.50839 C30.0858451,143.552557 28.8107175,144.748897 27.6789388,146.272248 C26.8091593,147.444305 26.0367216,148.817102 25.3829341,150.356641 C24.9984103,151.261586 24.2003053,153.471335 23.9261989,154.559211 C23.7131126,155.404258 23.4055904,155.923913 23.0753066,155.991906 C23.0496394,155.996762 23.0244565,156 22.9997579,156 Z M4.44478602,80.2064184 C3.71738696,84.9011232 3.11541822,90.2207095 2.70377428,95.5937182 C2.65437701,96.2849731 2.61030689,96.9551826 2.5764068,97.533117 C2.47422225,99.3478633 2.42143496,101.220889 2.42143496,103.064774 C2.42143496,109.252072 2.95560352,115.031415 3.96582618,119.777924 C5.19446228,125.545935 6.46087277,129.162477 7.83818498,130.829907 C9.02904669,132.273933 10.4112018,132.774162 11.7245881,133.162689 C12.6674949,133.441134 13.5895773,133.975359 14.4806654,134.491776 L14.6148129,134.571101 C15.7485287,135.228359 16.8706217,136.121972 17.9496131,137.226037 C19.2799495,138.584264 20.2775807,139.944109 21.1836816,141.634203 C21.6025899,142.412877 22.1813128,144.002601 22.9794178,146.404995 C23.3683003,145.287979 23.7596041,144.276189 23.9881876,143.738726 C24.7940412,141.841418 25.7316208,140.167513 26.7733221,138.765577 C28.0518398,137.044724 29.4669264,135.707543 31.2282781,134.563006 C32.152782,133.962408 33.1654261,133.421707 34.3248092,132.906909 C34.6705901,132.753117 35.0178239,132.649509 35.3650576,132.545902 C35.6842028,132.44877 36.0038322,132.356495 36.322493,132.212416 C36.8368058,131.9793 37.3259357,131.43698 37.8925515,130.807242 C38.3380955,130.31187 38.6896878,129.839162 39.002053,129.324363 C39.6277518,128.289909 40.2224562,126.841026 40.7677633,125.016567 C41.9397379,121.097298 42.7978944,116.46411 43.1848397,111.965287 C43.4371532,109.018955 43.5771122,105.857314 43.5771122,103.064774 C43.5771122,101.950996 43.5558035,100.793509 43.5136706,99.6230701 C43.3732274,95.679518 43.0061378,91.3943857 42.3596147,86.1330785 L42.3368532,85.9469092 C42.0549982,83.6513604 41.7634574,81.2781061 41.401695,79.2998547 C40.331905,73.4395679 39.7667421,66.701857 39.7667421,59.8152106 C39.7667421,49.9433795 40.9290309,40.5361623 42.9848292,33.5491464 L36.6643996,12.3808841 C34.8197505,17.2099546 32.5731431,19.8147064 30.2228984,19.8147064 C27.714776,19.8147064 25.2880139,16.78905 23.3886403,11.2962453 C23.3755646,11.2573926 23.3624888,11.2185399 23.3494131,11.1780683 C23.318903,11.0809365 23.1973469,10.6956469 23.0322051,10.1468521 C22.9009633,10.6244169 22.7818287,11.0307517 22.6922356,11.2913888 C20.7933463,16.7874312 18.3651313,19.8163252 15.8555561,19.8163252 C13.5261357,19.8163252 11.2984155,17.2585205 9.47507501,12.5492459 L2.98853503,34.2954426 C4.93585303,41.2937905 5.99353582,50.2606768 5.99353582,59.8135918 C5.99305153,67.6505111 5.47244302,74.5112557 4.44478602,80.2064184 Z" id="Shape" fill-rule="nonzero"></path>
            <path d="M14.133982,93.2559827 C14.133982,97.7176427 14.2439693,100.735779 14.4639471,102.310483 C14.6839249,103.885186 15.0712713,104.672526 15.625998,104.672526 C16.1233391,104.672526 16.4963394,103.885186 16.74501,102.310483 C16.9936806,100.735779 17.118014,97.7176427 17.118014,93.2559827 C17.118014,88.7943226 17.0080267,85.7761861 16.7880489,84.2014826 C16.5680711,82.626779 16.1807247,81.8394391 15.625998,81.8394391 C15.1286569,81.8394391 14.7556566,82.626779 14.506986,84.2014826 C14.2583155,85.7761861 14.133982,88.7943226 14.133982,93.2559827 Z M17.0606287,62.9430911 C17.0415002,60.5810358 16.9076027,58.8751325 16.6589321,57.8253301 C16.4485186,56.9067531 16.0946465,56.4474714 15.5973054,56.4474714 C15.2147353,56.4474714 14.8752094,56.9887677 14.5787176,58.0713763 C14.2822257,59.153985 14.133982,60.8106795 14.133982,63.0415095 L14.133982,74.1627977 L14.1913673,74.1627977 C14.4209093,72.4568689 14.8465122,71.1118298 15.4681886,70.12764 C16.0898651,69.1434503 16.8023912,68.6513629 17.6057884,68.6513629 C18.3326716,68.6513629 18.9925952,68.9958241 19.5855788,69.6847569 C20.1785625,70.3736897 20.6902424,71.5218938 21.1206337,73.1294037 C21.5510251,74.7369135 21.8809869,76.9020984 22.1105289,79.6250233 C22.340071,82.3479482 22.4548403,85.7433518 22.4548403,89.8113359 C22.4548403,94.5354465 22.3065966,98.5705638 22.0101048,101.916809 C21.713613,105.263054 21.2736639,107.969535 20.6902445,110.036333 C20.1068251,112.103132 19.394299,113.579394 18.5526447,114.465165 C17.7109905,115.350936 16.7450154,115.793814 15.6546906,115.793814 C14.4878518,115.793814 13.4644921,115.350936 12.5845808,114.465165 C11.7046696,113.579394 10.9730152,112.004714 10.3895958,109.741078 C9.80617639,107.477442 9.36622736,104.459305 9.06973553,100.686578 C8.77324369,96.9138506 8.625,92.1734079 8.625,86.4651076 L8.625,78.6900477 C8.625,73.3098106 8.70629493,68.5365621 8.86888723,64.370159 C9.03147952,60.2037559 9.36144129,56.6935319 9.85878244,53.8393817 C10.3561236,50.9852316 11.0638677,48.8036438 11.9820359,47.2945529 C12.9002042,45.785462 14.1148461,45.0309278 15.625998,45.0309278 C16.9267364,45.0309278 17.9931346,45.5230153 18.8252246,46.507205 C19.6573145,47.4913947 20.312456,48.8200309 20.7906687,50.4931534 C21.2688813,52.1662759 21.5988431,54.0854171 21.7805639,56.2506345 C21.9622847,58.4158518 22.0531437,60.6466484 22.0531437,62.9430911 L17.0606287,62.9430911 Z M29.0541417,93.2559827 C29.0541417,97.7176427 29.164129,100.735779 29.3841068,102.310483 C29.6040846,103.885186 29.991431,104.672526 30.5461577,104.672526 C31.0434988,104.672526 31.4164991,103.885186 31.6651697,102.310483 C31.9138402,100.735779 32.0381737,97.7176427 32.0381737,93.2559827 C32.0381737,88.7943226 31.9281864,85.7761861 31.7082086,84.2014826 C31.4882308,82.626779 31.1008843,81.8394391 30.5461577,81.8394391 C30.0488165,81.8394391 29.6758163,82.626779 29.4271457,84.2014826 C29.1784751,85.7761861 29.0541417,88.7943226 29.0541417,93.2559827 Z M31.9807884,62.9430911 C31.9616599,60.5810358 31.8277624,58.8751325 31.5790918,57.8253301 C31.3686783,56.9067531 31.0148062,56.4474714 30.5174651,56.4474714 C30.134895,56.4474714 29.7953691,56.9887677 29.4988772,58.0713763 C29.2023854,59.153985 29.0541417,60.8106795 29.0541417,63.0415095 L29.0541417,74.1627977 L29.1115269,74.1627977 C29.341069,72.4568689 29.7666719,71.1118298 30.3883483,70.12764 C31.0100247,69.1434503 31.7225509,68.6513629 32.5259481,68.6513629 C33.2528313,68.6513629 33.9127549,68.9958241 34.5057385,69.6847569 C35.0987222,70.3736897 35.610402,71.5218938 36.0407934,73.1294037 C36.4711848,74.7369135 36.8011466,76.9020984 37.0306886,79.6250233 C37.2602307,82.3479482 37.375,85.7433518 37.375,89.8113359 C37.375,94.5354465 37.2267563,98.5705638 36.9302645,101.916809 C36.6337726,105.263054 36.1938236,107.969535 35.6104042,110.036333 C35.0269848,112.103132 34.3144586,113.579394 33.4728044,114.465165 C32.6311501,115.350936 31.6651751,115.793814 30.5748503,115.793814 C29.4080115,115.793814 28.3846518,115.350936 27.5047405,114.465165 C26.6248293,113.579394 25.8931749,112.004714 25.3097555,109.741078 C24.7263361,107.477442 24.286387,104.459305 23.9898952,100.686578 C23.6934034,96.9138506 23.5451597,92.1734079 23.5451597,86.4651076 L23.5451597,78.6900477 C23.5451597,73.3098106 23.6264546,68.5365621 23.7890469,64.370159 C23.9516392,60.2037559 24.281601,56.6935319 24.7789421,53.8393817 C25.2762833,50.9852316 25.9840273,48.8036438 26.9021956,47.2945529 C27.8203639,45.785462 29.0350058,45.0309278 30.5461577,45.0309278 C31.8468961,45.0309278 32.9132942,45.5230153 33.7453842,46.507205 C34.5774742,47.4913947 35.2326157,48.8200309 35.7108283,50.4931534 C36.189041,52.1662759 36.5190028,54.0854171 36.7007236,56.2506345 C36.8824444,58.4158518 36.9733034,60.6466484 36.9733034,62.9430911 L31.9807884,62.9430911 Z" id="66"></path>
        </g>
        <g id="Group-3" opacity="0.671128217" transform="translate(592.000000, 854.000000) rotate(-270.000000) translate(-592.000000, -854.000000) translate(558.000000, 776.000000)" fill="#FFFFFF">
            <path d="M33.999642,156 C33.5500553,156 33.1155024,155.617948 32.7833237,154.921837 C32.0710007,153.429244 30.1788703,149.466266 29.5746486,148.7054 C28.462852,147.305083 27.2035795,146.152452 25.488993,144.965825 C24.034995,143.96051 22.522293,143.146222 20.9931252,142.545623 L20.7948202,142.467918 C19.4925936,141.957976 18.2626731,141.473936 17.0177186,141.224631 C14.8399431,140.787537 12.5333053,140.21446 10.3677002,138.438566 C7.62579355,136.189964 5.19888403,131.621531 2.94737064,124.467772 C1.01872927,118.345229 0,110.943784 0,103.064774 C0,100.722279 0.0987945465,98.3441677 0.293520029,96.0016719 C0.355087645,95.2942284 0.430257409,94.5139361 0.522608833,93.6446063 C1.20915934,87.577105 2.20927515,81.6180675 3.422014,76.3535226 C3.44062747,76.2741983 3.45995684,76.194874 3.48071801,76.1171685 C4.67412749,71.6847196 5.27978102,66.2000092 5.27978102,59.8135918 C5.27978102,51.7856465 3.87160078,44.2854507 1.31511291,38.6938954 L0.653618992,37.3097669 C0.297099542,36.5634707 0.0902037164,35.5209224 0.0808969837,34.4217139 C0.0708743486,33.3225054 0.259872611,32.2621497 0.602789914,31.4834762 L12.6449861,4.17000714 C13.3150708,2.64827522 14.3946518,2.57704521 15.1041112,4.00812076 L15.1986103,4.19914669 C17.4637259,9.08163974 20.3738696,11.7203876 23.4386482,11.7203876 C26.2879402,11.7203876 29.0455967,9.39246158 31.2033268,5.16884607 C31.3894615,4.7835565 32.0846028,2.94938388 32.6136548,1.48754991 C32.9565721,0.540514624 33.449113,-0.0325631417 34.0118124,0.00143299691 C34.5530347,0.00952731563 35.0634732,0.572891899 35.4006633,1.52964037 C35.8380797,2.77454659 36.5861978,4.45816489 36.9462968,5.23198176 C39.0990156,9.41674453 41.84307,11.7203876 44.6780439,11.7203876 C47.7421066,11.7203876 50.6536822,9.08163974 52.8744117,4.28980306 L53.0175923,3.96603031 C53.717029,2.39087588 54.8495868,2.39411361 55.5468758,3.97412463 L67.397926,30.8181232 C67.7487182,31.6129853 67.9377165,32.7040995 67.9198189,33.8259721 C67.9019214,34.9494635 67.6778439,36.0049627 67.3019951,36.7399268 L66.9111123,37.5040305 C64.0217297,43.1117745 62.367279,51.2400894 62.367279,59.8135918 C62.367279,65.2125023 63.0216139,70.4932359 64.2601253,75.0810957 C64.9430963,77.6097609 65.4291941,80.2841238 65.8981102,82.8726869 L65.9317576,83.0572374 C67.0142022,89.014656 67.6334579,93.9732356 67.8811602,98.661465 C67.9599095,100.145963 68,101.628842 68,103.064774 C68,106.59066 67.7451387,110.543925 67.2812339,114.199319 C66.3376744,121.626666 64.3224088,127.292689 62.7982524,130.73925 C61.7150919,133.19021 60.5181029,135.15551 59.2423646,136.580111 C58.6309838,137.263271 57.9608991,137.875202 57.1927357,138.451517 C56.2226878,139.180006 55.2683897,139.898781 54.1759225,140.233886 C53.651166,140.394154 53.1242617,140.500999 52.5980734,140.606225 C52.1356004,140.700119 51.6738432,140.790775 51.2142338,140.929997 C49.5712376,141.422132 48.143728,141.93855 46.8479444,142.50839 C44.4747276,143.552557 42.5897563,144.748897 40.9166921,146.272248 C39.6309312,147.444305 38.4890667,148.817102 37.5225983,150.356641 C36.9541717,151.261586 35.7743644,153.471335 35.3691636,154.559211 C35.0541664,155.404258 34.5995684,155.923913 34.1113228,155.991906 C34.07338,155.996762 34.0361531,156 33.999642,156 Z M6.57055325,80.2064184 C5.49526767,84.9011232 4.60540085,90.2207095 3.99688372,95.5937182 C3.92386166,96.2849731 3.85871453,96.9551826 3.80860136,97.533117 C3.65754593,99.3478633 3.57951255,101.220889 3.57951255,103.064774 C3.57951255,109.252072 4.36915302,115.031415 5.86252566,119.777924 C7.67877033,125.545935 9.5508554,129.162477 11.5868821,130.829907 C13.3472864,132.273933 15.3904722,132.774162 17.3319998,133.162689 C18.725862,133.441134 20.0889404,133.975359 21.406201,134.491776 L21.604506,134.571101 C23.2804338,135.228359 24.9391799,136.121972 26.5342107,137.226037 C28.5007949,138.584264 29.975554,139.944109 31.3150076,141.634203 C31.9342633,142.412877 32.7897668,144.002601 33.9695741,146.404995 C34.5444439,145.287979 35.1228931,144.276189 35.4607991,143.738726 C36.6520609,141.841418 38.0380481,140.167513 39.5779544,138.765577 C41.467937,137.044724 43.5598042,135.707543 46.1635416,134.563006 C47.5301995,133.962408 49.0271517,133.421707 50.7410223,132.906909 C51.2521767,132.753117 51.7654788,132.649509 52.2787809,132.545902 C52.7505606,132.44877 53.2230563,132.356495 53.6941201,132.212416 C54.4544086,131.9793 55.1774701,131.43698 56.0150761,130.807242 C56.6737064,130.31187 57.1934516,129.839162 57.6552087,129.324363 C58.5801548,128.289909 59.459283,126.841026 60.2653893,125.016567 C61.9978733,121.097298 63.2664526,116.46411 63.8384587,111.965287 C64.2114439,109.018955 64.4183397,105.857314 64.4183397,103.064774 C64.4183397,101.950996 64.38684,100.793509 64.3245565,99.6230701 C64.1169448,95.679518 63.5742907,91.3943857 62.6185608,86.1330785 L62.5849134,85.9469092 C62.1682581,83.6513604 61.7372848,81.2781061 61.2025057,79.2998547 C59.621077,73.4395679 58.7856188,66.701857 58.7856188,59.8152106 C58.7856188,49.9433795 60.5037848,40.5361623 63.542791,33.5491464 L54.1995473,12.3808841 C51.4726746,17.2099546 48.1516029,19.8147064 44.677328,19.8147064 C40.9696689,19.8147064 37.3822814,16.78905 34.5745118,11.2962453 C34.5551824,11.2573926 34.535853,11.2185399 34.5165237,11.1780683 C34.4714218,11.0809365 34.2917303,10.6956469 34.0476075,10.1468521 C33.8535979,10.6244169 33.6774859,11.0307517 33.545044,11.2913888 C30.7379902,16.7874312 27.148455,19.8163252 23.4386482,19.8163252 C19.9951571,19.8163252 16.7020056,17.2585205 14.0066326,12.5492459 L4.41783439,34.2954426 C7.29647839,41.2937905 8.86000948,50.2606768 8.86000948,59.8135918 C8.85929357,67.6505111 8.08969837,74.5112557 6.57055325,80.2064184 Z" id="Shape" fill-rule="nonzero"></path>
            <path d="M20.8937126,93.2559827 C20.8937126,97.7176427 21.0563024,100.735779 21.381487,102.310483 C21.7066716,103.885186 22.2792707,104.672526 23.0993014,104.672526 C23.8345013,104.672526 24.385893,103.885186 24.753493,102.310483 C25.121093,100.735779 25.3048902,97.7176427 25.3048902,93.2559827 C25.3048902,88.7943226 25.1423004,85.7761861 24.8171158,84.2014826 C24.4919312,82.626779 23.9193321,81.8394391 23.0993014,81.8394391 C22.3641014,81.8394391 21.8127098,82.626779 21.4451098,84.2014826 C21.0775098,85.7761861 20.8937126,88.7943226 20.8937126,93.2559827 Z M25.2200599,62.9430911 C25.191783,60.5810358 24.9938475,58.8751325 24.6262475,57.8253301 C24.3152014,56.9067531 23.7920862,56.4474714 23.0568862,56.4474714 C22.4913478,56.4474714 21.98944,56.9887677 21.5511477,58.0713763 C21.1128554,59.153985 20.8937126,60.8106795 20.8937126,63.0415095 L20.8937126,74.1627977 L20.9785429,74.1627977 C21.317866,72.4568689 21.947018,71.1118298 22.866018,70.12764 C23.7850179,69.1434503 24.8383174,68.6513629 26.0259481,68.6513629 C27.1004711,68.6513629 28.0760103,68.9958241 28.9525948,69.6847569 C29.8291794,70.3736897 30.5855757,71.5218938 31.2218064,73.1294037 C31.8580371,74.7369135 32.3458067,76.9020984 32.6851297,79.6250233 C33.0244528,82.3479482 33.1941118,85.7433518 33.1941118,89.8113359 C33.1941118,94.5354465 32.9749689,98.5705638 32.5366766,101.916809 C32.0983844,105.263054 31.4480249,107.969535 30.5855788,110.036333 C29.7231327,112.103132 28.6698332,113.579394 27.4256487,114.465165 C26.1814642,115.350936 24.7535011,115.793814 23.1417166,115.793814 C21.4168244,115.793814 19.9040318,115.350936 18.6032934,114.465165 C17.302555,113.579394 16.220979,112.004714 15.3585329,109.741078 C14.4960868,107.477442 13.8457274,104.459305 13.4074351,100.686578 C12.9691429,96.9138506 12.75,92.1734079 12.75,86.4651076 L12.75,78.6900477 C12.75,73.3098106 12.8701751,68.5365621 13.1105289,64.370159 C13.3508828,60.2037559 13.8386523,56.6935319 14.5738523,53.8393817 C15.3090522,50.9852316 16.3552826,48.8036438 17.7125749,47.2945529 C19.0698671,45.785462 20.8654246,45.0309278 23.0993014,45.0309278 C25.022132,45.0309278 26.5985467,45.5230153 27.8285928,46.507205 C29.0586389,47.4913947 30.0271089,48.8200309 30.7340319,50.4931534 C31.440955,52.1662759 31.9287245,54.0854171 32.1973553,56.2506345 C32.465986,58.4158518 32.6002994,60.6466484 32.6002994,62.9430911 L25.2200599,62.9430911 Z M42.9496008,93.2559827 C42.9496008,97.7176427 43.1121907,100.735779 43.4373752,102.310483 C43.7625598,103.885186 44.3351589,104.672526 45.1551896,104.672526 C45.8903896,104.672526 46.4417813,103.885186 46.8093812,102.310483 C47.1769812,100.735779 47.3607784,97.7176427 47.3607784,93.2559827 C47.3607784,88.7943226 47.1981886,85.7761861 46.873004,84.2014826 C46.5478194,82.626779 45.9752203,81.8394391 45.1551896,81.8394391 C44.4199897,81.8394391 43.868598,82.626779 43.500998,84.2014826 C43.133398,85.7761861 42.9496008,88.7943226 42.9496008,93.2559827 Z M47.2759481,62.9430911 C47.2476712,60.5810358 47.0497357,58.8751325 46.6821357,57.8253301 C46.3710896,56.9067531 45.8479744,56.4474714 45.1127745,56.4474714 C44.547236,56.4474714 44.0453282,56.9887677 43.6070359,58.0713763 C43.1687437,59.153985 42.9496008,60.8106795 42.9496008,63.0415095 L42.9496008,74.1627977 L43.0344311,74.1627977 C43.3737542,72.4568689 44.0029063,71.1118298 44.9219062,70.12764 C45.8409061,69.1434503 46.8942056,68.6513629 48.0818363,68.6513629 C49.1563593,68.6513629 50.1318985,68.9958241 51.008483,69.6847569 C51.8850676,70.3736897 52.6414639,71.5218938 53.2776946,73.1294037 C53.9139253,74.7369135 54.4016949,76.9020984 54.741018,79.6250233 C55.080341,82.3479482 55.25,85.7433518 55.25,89.8113359 C55.25,94.5354465 55.0308571,98.5705638 54.5925649,101.916809 C54.1542726,105.263054 53.5039132,107.969535 52.6414671,110.036333 C51.779021,112.103132 50.7257215,113.579394 49.4815369,114.465165 C48.2373524,115.350936 46.8093893,115.793814 45.1976048,115.793814 C43.4727126,115.793814 41.95992,115.350936 40.6591816,114.465165 C39.3584433,113.579394 38.2768673,112.004714 37.4144212,109.741078 C36.5519751,107.477442 35.9016156,104.459305 35.4633234,100.686578 C35.0250311,96.9138506 34.8058882,92.1734079 34.8058882,86.4651076 L34.8058882,78.6900477 C34.8058882,73.3098106 34.9260633,68.5365621 35.1664172,64.370159 C35.406771,60.2037559 35.8945406,56.6935319 36.6297405,53.8393817 C37.3649405,50.9852316 38.4111709,48.8036438 39.7684631,47.2945529 C41.1257553,45.785462 42.9213128,45.0309278 45.1551896,45.0309278 C47.0780203,45.0309278 48.654435,45.5230153 49.884481,46.507205 C51.1145271,47.4913947 52.0829971,48.8200309 52.7899202,50.4931534 C53.4968432,52.1662759 53.9846128,54.0854171 54.2532435,56.2506345 C54.5218743,58.4158518 54.6561876,60.6466484 54.6561876,62.9430911 L47.2759481,62.9430911 Z" id="66"></path>
        </g>
        <g id="Group" transform="translate(571.000000, 608.000000)" fill-rule="nonzero">
            <path d="M271.733668,114.431026 C271.733668,101.97783 261.657196,91.8522727 249.238115,91.8522727 C236.770229,91.8522727 226.703518,101.97457 226.703518,114.431026 C226.703518,126.894003 236.770229,137 249.238115,137 C261.66045,137 271.733668,126.894003 271.733668,114.431026 Z" id="Shape" fill="#252C3B"></path>
            <path d="M220.492462,114.431026 C220.492462,101.97783 210.400843,91.8522727 197.977387,91.8522727 C185.534417,91.8522727 175.462312,101.97457 175.462312,114.431026 C175.462312,126.894003 185.534417,137 197.977387,137 C210.404095,137 220.492462,126.894003 220.492462,114.431026 Z" id="Shape" fill="#252C3B"></path>
            <path d="M76.0854271,114.431026 C76.0854271,101.97783 66.0111386,91.8522727 53.5849899,91.8522727 C41.1198062,91.8522727 31.0552764,101.97457 31.0552764,114.431026 C31.0552764,126.894003 41.1198062,137 53.5849899,137 C66.0143915,137 76.0854271,126.894003 76.0854271,114.431026 Z" id="Shape" fill="#252C3B"></path>
            <path d="M171.161749,112.083984 L80.0812115,112.083984 C78.0304346,97.3855165 64.498562,87.1161868 49.8403898,89.1543744 C36.2303924,91.0586426 26.2564551,102.980733 26.7414801,116.761364 L0,116.761364 L0,104.319927 L4.6256413,104.319927 L4.6256413,67.6129529 L20.2375876,21.7831296 L70.5532368,21.7831296 L73.642423,47.169017 L73.642423,79.0940896 L79.4789992,79.0940896 L79.4789992,6.73189835 C79.4789992,3.00828646 82.4835502,0 86.1749486,0 L302.304051,0 C306.01498,0 309,3.00828646 309,6.73189835 L309,105.365151 C309,109.078964 306.01498,112.083984 302.304051,112.083984 L275.790435,112.083984 C273.951246,98.803102 262.619889,88.8963346 249.260543,88.8963346 L197.711172,88.8963346 C184.322528,88.8963346 173.013958,98.7998357 171.161749,112.083984 Z M60.7583355,59.6267853 L60.7583355,31.1019583 L26.8651778,31.1019583 L17.174443,59.6267853 L60.7583355,59.6267853 Z" id="Shape" fill="url(#linearGradient-3)"></path>
        </g>
        <g id="Group" opacity="0.458467371" transform="translate(722.000000, 798.000000) scale(1, -1) translate(-722.000000, -798.000000) translate(3.000000, 721.000000)">
            <path d="M793.489562,127.203304 L705.085434,127.203304 C739.944946,110.522119 752.556594,98.8675309 733.219283,101.180655 C715.235091,103.341795 675.664772,116.87209 641.586598,132.511628 L615.630918,132.511628 L646.822419,118.391931 L651.312135,118.391931 L743.338935,76.7334517 L873.390506,24.7215164 L922.227626,24.7215164 L861.581945,53.5317766 L781.543687,89.7633108 L787.208755,89.7633108 L968.625531,7.6399828 C977.960871,3.41408256 988.419106,0 992.002032,0 L1201.78016,0 C1205.38205,0 1200.73738,3.41408256 1191.40204,7.6399828 L944.121982,119.578149 C934.811208,123.792928 924.38012,127.203304 920.778237,127.203304 L895.043725,127.203304 C926.554628,112.130927 940.393162,100.887808 927.426381,100.887808 L877.391793,100.887808 C864.396575,100.887808 828.59158,112.12722 793.489562,127.203304 Z M817.844013,67.6700078 L775.540837,67.6700078 L856.460427,35.2973878 L889.357632,35.2973878 L817.844013,67.6700078 Z M887.140315,128.040508 C855.472577,142.375787 819.801377,154 807.478689,154 C795.110816,154 810.803639,142.375787 842.471378,128.040508 C874.12255,113.712729 909.828711,102.069767 922.196585,102.069767 C934.516045,102.069767 918.783204,113.716479 887.140315,128.040508 Z M836.090101,128.040508 C804.422362,142.375787 768.736136,154 756.40911,154 C744.065952,154 759.753425,142.375787 791.421163,128.040508 C823.072335,113.712729 858.783848,102.069767 871.127005,102.069767 C883.450806,102.069767 867.732989,113.716479 836.090101,128.040508 Z M698.89265,128.040508 C667.224911,142.375787 631.555877,154 619.226179,154 C606.860986,154 622.555973,142.375787 654.223712,128.040508 C685.874884,113.712729 721.578882,102.069767 733.944075,102.069767 C746.270546,102.069767 730.535538,113.716479 698.89265,128.040508 Z" id="Shape" fill="url(#linearGradient-4)" fill-rule="nonzero"></path>
            <path d="M0,89 L1437.50035,89" id="Path-69" stroke="#E5BEB3" stroke-width="7" opacity="0.438074449" stroke-dasharray="55,55"></path>
        </g>
        <path d="M1012.67195,852.721952 C1024.41297,848.263 1031.96159,842.117109 1035.31782,834.28428 C1040.35215,822.535036 1028.47692,825.035789 1041.49906,798.780507 C1054.5212,772.525226 1072.25272,774.650155 1078.84258,757.288146 C1085.43245,739.926137 1053.19112,736.992097 1059.74825,708.523928 C1066.30538,680.05576 1092.67416,681.617331 1101.30651,659.75971 C1109.93885,637.902089 1087.57475,638.07259 1101.30651,603.295879 C1115.03827,568.519167 1133.76073,569.552785 1146.23436,545.976534 C1158.70799,522.400284 1139.45278,529.064623 1161.9591,488.65719 C1184.46543,448.249757 1243.54188,455.869845 1216.99572,418.932914 C1199.29828,394.308293 1130.39239,380.237972 1010.27805,376.721952 L1012.67195,852.721952 Z" id="Path-126-Copy-13" fill="url(#linearGradient-5)" transform="translate(1117.000000, 614.721952) scale(1, -1) rotate(90.000000) translate(-1117.000000, -614.721952) "></path>
        <g id="Group-2" transform="translate(-4.000000, 284.000000)">
            <path d="M1389.28478,196.046512 L1391.87673,162.43702 L1391.87673,141.371071 L1416.08296,132.696857 L1416.08296,124.022643 L1476.59855,124.022643 L1493.54292,115.348429 L1532.27289,115.348429 L1532.27289,107.913388 L1667.82781,107.913388 L1667.82781,115.348429 L1757.39088,115.348429 L1779.17649,98 L1856.63645,98 L1885.68393,107.913388 L1931.67578,107.913388 L1977.66762,102.956694 L2084.17506,102.956694 L2181,102.956694 L2181,199.739235 L2041.42212,199.739235 L2068,216.75969 L2064.20294,231 L117,231 L117.123322,230.870107 L0,231 L0,206.898734 L14.2049762,206.898734 L22.3529412,202.829268 L37.8823529,195.073171 L45.6470588,167.926829 L56,167.926829 L65.0588235,155 L76.7058824,162.756098 L76.7058824,181.5 L76.7058824,189.902439 L96.3015055,205.126582 L111.195313,205.126582 L130.589844,203 L213.428219,203 L232.145225,183.100775 L247.670424,175.333333 L252.845491,167.565891 L263.195623,149.44186 L270.958223,96.3643411 L296.833554,96.3643411 L296.833554,155.914729 L309.77122,155.914729 L309.77122,101.542636 L316.240053,118.372093 L324.002653,108.015504 L329.177719,149.44186 L339.527851,101.542636 L344.702918,108.015504 L353.759284,101.542636 L358.93435,88.5968992 L371.872016,88.5968992 L371.872016,96.3643411 L392.572281,96.3643411 L392.572281,101.542636 L408.09748,101.542636 L422.328912,96.3643411 L431.385279,108.015504 L431.385279,149.44186 L455.966844,161.093023 L474.079576,161.093023 L474.079576,175.333333 L485.723475,181.806202 L507.717507,175.333333 L525.830239,181.806202 L560.761936,175.333333 L560.761936,167.565891 L571.112069,161.093023 L593.106101,161.093023 L618.981432,155.914729 L633.212865,149.44186 L633.212865,131.317829 L643.562997,123.550388 L653.91313,101.542636 L659.088196,123.550388 L659.088196,101.542636 L666.850796,101.542636 L666.850796,140.379845 L695.31366,149.44186 L710.838859,155.914729 L728.951592,161.093023 L748.35809,167.565891 L779.408488,155.914729 L794.933687,140.379845 L811.752653,140.379845 L811.752653,101.542636 L822.102785,82.124031 L842.80305,74.3565891 L857.034483,74.3565891 L866.090849,64 L885.497347,64 L894.553714,74.3565891 L910.078912,74.3565891 L930.779178,88.5968992 L951.479443,82.124031 L965.226367,74.9915499 L962,71.7826087 L966.441379,48.5913043 L967.551724,27.6086957 L973.103448,16.5652174 L973.103448,11.0434783 L978.655172,5.52173913 L984.206897,5.52173913 L989.758621,0 L995.310345,0 L1011.96552,5.52173913 C1011.96552,5.52173913 1016.96207,5.52173913 1017.51724,5.52173913 C1018.07241,5.52173913 1028.62069,5.52173913 1028.62069,5.52173913 L1050.82759,11.0434783 L1061.93103,16.5652174 L1067.48276,16.5652174 L1073.03448,27.6086957 L1073.03448,38.6521739 L1078.58621,66.2608696 L1084.13793,66.2608696 L1089.68966,71.7826087 L1089.68966,77.3043478 L1100.7931,82.826087 L1100.7931,55.2173913 L1095.24138,38.6521739 L1100.7931,33.1304348 L1106.34483,33.1304348 L1111.89655,38.6521739 L1111.89655,49.6956522 L1111.89655,82.826087 L1111.89655,88.3478261 L1117.44828,110.434783 L1121.67846,118.849453 L1128.72546,123.550388 L1128.72546,140.379845 L1145.54443,155.914729 L1177.88859,167.565891 L1205.05769,183.100775 L1232.22679,189.573643 L1255.51459,189.573643 L1283.97745,196.046512 L1378.42241,196.046512 L1389.28478,196.046512 Z" id="Combined-Shape" fill="url(#linearGradient-6)" opacity="0.596966912"></path>
            <path d="M2068.20294,231 L2094.13759,237.472868 L2093.84952,256.30303 L2066.96801,253.360817 L2057.62406,256.30303 L2035.63002,256.30303 L2011.33605,253.360817 L1992.93573,256.30303 L1984.31051,259.833686 L1946.36013,256.30303 L1911.71602,253.360817 L1914.15952,262.775899 L1860.97154,256.30303 L1867.58393,262.775899 L1846.88366,262.775899 L1845.58974,268.071882 L1811.95196,262.775899 L1756.17644,256.30303 L1716.9323,252.772375 L1690.05079,249.830162 L1644.76896,249.830162 L1607.53732,246.887949 L1576.19933,249.830162 L1528.32997,249.830162 L1509.21106,246.887949 L1492.3921,246.887949 L1465.223,246.887949 L1436.76013,246.887949 L1342.31517,246.887949 L1323.91485,249.830162 L1300.62705,249.830162 L1283.52049,252.772375 L1280.50149,259.833686 L1266.2699,265.129669 L1273.60103,272.19098 L1299.76364,279.840733 L1300.02457,281.977521 L1308.8756,285.802372 L1337.65965,295.841897 L1346.24359,298.351779 L1397.74724,313.411067 L1414.91512,318.43083 L1417.94734,320.940711 L1398.25995,318.43083 L1378.05985,310.901186 L1335.14014,298.351779 L1332.62063,300.86166 L1341.20458,303.371542 L1344.23679,305.881423 L1376.05306,318.43083 L1393.22094,323.450593 L1404.8371,328.470356 L1396.76587,330.980237 L1383.14291,333.490119 C1383.14291,333.490119 1372.59464,333.490119 1372.03946,333.490119 C1371.66935,333.490119 1367.12836,334.326746 1358.41651,336 L1338.72912,333.490119 L1319.04173,330.980237 L1310.45779,328.470356 L1287.73818,323.450593 L1254.00886,313.913043 L1213.51492,303.371542 L1211.75276,301.912932 L1186.91788,298.670895 L1156.15507,295.728682 L1157.5924,302.20155 L1142.0672,302.20155 L1149.1109,306.909091 L1129.7044,306.909091 L1104.54797,302.20155 L1090.31653,302.20155 L1057.54122,298.670895 L1017.00346,289.844257 L956.628221,272.19098 L939.809256,272.19098 L900.133959,265.129669 L850.970988,259.833686 L841.62703,262.775899 L831.564331,265.129669 L826.101672,268.071882 L811.726364,272.19098 L872.101608,289.844257 L864.339009,289.844257 L830.126371,279.840733 L859.163942,289.844257 L814.601172,279.840733 L792.17599,276.310078 L764.000877,268.071882 L739.706904,265.129669 L705.78154,262.775899 L683.787508,262.775899 L663.374834,259.833686 L651.299786,256.30303 L606.305547,253.360817 L598.255356,256.30303 L566.198784,253.360817 L564.617425,256.30303 L586.755014,262.775899 L568.642282,262.775899 L562.17329,268.071882 L626.57355,286.902044 L635.629757,292.198027 L613.348293,289.844257 L597.823094,289.844257 L605.873126,292.198027 L585.172861,292.198027 L597.24791,295.728682 L584.310244,295.728682 L559.010096,289.844257 L539.89119,286.902044 L544.778664,289.844257 L459.965731,268.071882 L519.190924,286.902044 L495.32826,282.194503 L515.022033,289.844257 L430.496691,265.129669 L417.559026,265.129669 L510.134399,292.198027 L484.259068,292.198027 L393.983635,268.071882 L355.458389,259.833686 L338.208274,256.30303 L310.608026,252.772375 L260.956239,243.727273 L178.117864,243.727273 L155.417407,242.760644 L140.5236,242.760644 L144.595006,249.68071 L157.657203,253.5 L186.795952,262.019956 L187.206306,265.545455 L158.051794,259.669623 L147.698853,259.669623 L97.7332009,247.330377 L70.146376,243.804878 L55.6721327,241.955121 L41.4671565,241.955121 L4,231 L121.32525,231.059042 L2068.20294,231 Z" id="Combined-Shape" fill="url(#linearGradient-7)" opacity="0.748678768" style="mix-blend-mode: multiply;"></path>
        </g>
        <g id="Group-5" transform="translate(253.000000, 506.000000)" fill="#637598" fill-rule="nonzero">
            <path d="M129.745088,40.1320187 C129.743498,40.101279 129.735018,40.0731893 129.727068,40.0435096 C129.720178,40.0175398 129.714878,39.9921001 129.703218,39.9682503 C129.691028,39.9433406 129.673538,39.9221408 129.657638,39.899881 C129.640679,39.8776212 129.625309,39.8553615 129.604639,39.8362816 C129.585559,39.8182618 129.562239,39.8060719 129.53945,39.7922921 C129.51401,39.7763922 129.4891,39.7604924 129.45995,39.7504225 C129.452,39.7477725 129.446171,39.7408826 129.437691,39.7387626 L107.51605,33.302507 L106.48362,25.3854462 L124.53683,25.3854462 L124.53683,29.2952171 C124.53683,29.5353047 124.731338,29.7298127 124.970895,29.7298127 C125.210453,29.7298127 125.405491,29.5353047 125.405491,29.2952171 L125.405491,24.9508505 C125.405491,24.9376006 125.399131,24.9259407 125.398071,24.9126909 C125.394891,24.8824812 125.389061,24.8549215 125.380581,24.8263017 C125.372631,24.799802 125.363621,24.7754223 125.350901,24.7515725 C125.338182,24.7266627 125.322282,24.704933 125.305322,24.6832032 C125.287302,24.6609434 125.269812,24.6413336 125.248613,24.6233138 C125.227943,24.6058239 125.205683,24.5920441 125.181833,24.5787942 C125.156393,24.5639544 125.130424,24.5522945 125.101274,24.5432846 C125.088554,24.5390446 125.079014,24.5305647 125.065764,24.5273847 L105.639869,20.2100479 L103.557519,18.1276987 C103.387921,17.9581004 103.112854,17.9581004 102.943256,18.1276987 L100.864086,20.2068679 L79.2721023,24.5252648 C79.2562024,24.5284447 79.2440126,24.5379846 79.2286427,24.5427546 C79.203733,24.5507045 79.1809432,24.5591844 79.1581534,24.5713743 C79.1316537,24.5851542 79.1083339,24.601584 79.0860741,24.6201338 C79.0669943,24.6355036 79.0495045,24.6508735 79.0336047,24.6694233 C79.0134649,24.6916831 78.998625,24.7165928 78.9837852,24.7430926 C78.9721253,24.7642924 78.9604654,24.7839022 78.9519855,24.8072219 C78.9413856,24.8369016 78.9371456,24.8676413 78.9334357,24.899971 C78.9313157,24.9174608 78.9228358,24.9333607 78.9228358,24.9513805 L78.9228358,29.295747 C78.9228358,29.5358346 79.1173438,29.7303427 79.3574314,29.7303427 C79.597519,29.7303427 79.7920271,29.5358346 79.7920271,29.295747 L79.7920271,25.3859761 L100.017155,25.3859761 L98.9847252,33.303037 L77.0625544,39.7392926 C77.0540745,39.7414126 77.0487745,39.7483025 77.0402946,39.7509525 C77.0111449,39.7615524 76.9862351,39.7769222 76.9607954,39.7928221 C76.9380056,39.8066019 76.9146859,39.8193218 76.895076,39.8368116 C76.8744063,39.8553615 76.8595664,39.8781512 76.8420766,39.900411 C76.8256467,39.9226708 76.8086869,39.9438706 76.796497,39.9687803 C76.7853671,39.9921001 76.7795372,40.0180698 76.7726473,40.0440396 C76.7641674,40.0731893 76.7567474,40.101279 76.7546275,40.1325487 C76.7546275,40.1399686 76.7503875,40.1473885 76.7503875,40.1558684 L76.7503875,44.500235 C76.7503875,44.7403226 76.9448956,44.9348307 77.1849832,44.9348307 C77.4250707,44.9348307 77.6190488,44.7403226 77.6190488,44.500235 L77.6190488,40.5904641 L98.0333847,40.5904641 L94.1310337,70.5091949 C94.1299737,70.5182048 94.1331537,70.5266847 94.1331537,70.5356946 C94.1310337,70.5659043 94.1347437,70.5945241 94.1395136,70.6247338 C94.1432236,70.6512335 94.1453435,70.6777332 94.1538235,70.702643 C94.1623034,70.7275527 94.1760832,70.7498125 94.1893331,70.7731323 C94.204173,70.800162 94.2184828,70.8256017 94.2386226,70.8483915 C94.2444526,70.8552815 94.2465725,70.8637614 94.2529325,70.8706513 C94.2656523,70.8833712 94.2826122,70.8886711 94.296392,70.899801 C94.3202418,70.9188808 94.3440916,70.9369006 94.3721813,70.9506805 C94.399211,70.9639304 94.4262407,70.9713503 94.4543305,70.9787702 C94.4723503,70.9835402 94.4871901,70.9936101 94.5057399,70.99626 C94.5248198,70.99891 94.5428396,70.99997 94.5613894,70.99997 C94.5613894,70.99997 94.5613894,70.99997 94.5613894,70.99997 C94.5613894,70.99997 94.5613894,70.99997 94.5619194,70.99997 C94.6170388,70.99997 94.6705683,70.9888401 94.7193278,70.9692303 C94.7309877,70.9644604 94.7405276,70.9554505 94.7521875,70.9496205 C94.7898171,70.9310707 94.8258567,70.9098709 94.8560664,70.8812512 C94.8587164,70.8786012 94.8629564,70.8775412 94.8666663,70.8743613 L103.250122,62.5942541 L111.633049,70.8748913 C111.636229,70.8775412 111.640469,70.8786012 111.643649,70.8817812 C111.674388,70.9104009 111.709898,70.9316007 111.747528,70.9501505 C111.758657,70.9559804 111.768727,70.9649904 111.780387,70.9697603 C111.829677,70.9893701 111.882676,71.0005 111.937796,71.0005 C111.937796,71.0005 111.937796,71.0005 111.938326,71.0005 C111.938856,71.0005 111.938326,71.0005 111.938326,71.0005 C111.956875,71.0005 111.975425,70.99944 111.993975,70.99679 C112.012525,70.9946701 112.027365,70.9840702 112.044855,70.9793002 C112.073474,70.9718803 112.100504,70.9644604 112.127534,70.9512105 C112.155623,70.9374306 112.178943,70.9194108 112.203323,70.900331 C112.217103,70.8892011 112.234063,70.8839012 112.246783,70.8711813 C112.253142,70.8642914 112.255262,70.8563414 112.261092,70.8489215 C112.281762,70.8261317 112.295542,70.800692 112.310382,70.7736623 C112.323632,70.7503425 112.337412,70.7280827 112.345892,70.703173 C112.354371,70.6782632 112.357021,70.6517635 112.360201,70.6252638 C112.364441,70.5950541 112.368681,70.5664343 112.366561,70.5362246 C112.366561,70.5272147 112.369741,70.5187348 112.368151,70.5097249 L108.4658,40.5909941 L128.880136,40.5909941 L128.880136,44.500235 C128.880136,44.7403226 129.074644,44.9348307 129.314202,44.9348307 C129.553759,44.9348307 129.749858,44.7403226 129.749858,44.500235 L129.749858,40.1558684 C129.749858,40.1473885 129.745618,40.1399686 129.745088,40.1320187 Z M102.706878,46.4389556 L97.1891031,53.7804422 L98.8209568,41.2688573 L102.706878,46.4389556 Z M99.398121,40.5904641 L107.102124,40.5904641 L103.250122,45.7160428 L99.398121,40.5904641 Z M103.250122,47.1618684 L109.380041,55.3179568 L103.250122,61.3726163 L97.1202038,55.3179568 L103.250122,47.1618684 Z M103.793367,46.4389556 L107.679288,41.2688573 L109.311142,53.7804422 L103.793367,46.4389556 Z M99.0228848,39.7212728 L99.7590474,34.0736493 L106.740138,34.0736493 L107.47683,39.7212728 L99.0228848,39.7212728 Z M103.796017,28.5505745 L105.694458,26.0553595 L106.47991,32.0787492 L103.796017,28.5505745 Z M106.245653,33.204988 L100.254592,33.204988 L103.250122,29.2681873 L106.245653,33.204988 Z M103.250122,27.8329617 L101.387721,25.3854462 L105.111994,25.3854462 L103.250122,27.8329617 Z M101.006655,24.5167848 L101.45927,21.0416096 L105.040975,21.0416096 L105.49359,24.5167848 L101.006655,24.5167848 Z M102.704228,28.5505745 L100.020335,32.0787492 L100.805787,26.0553595 L102.704228,28.5505745 Z M105.932956,21.1656283 L121.013955,24.5167848 L106.370201,24.5167848 L105.932956,21.1656283 Z M103.250122,19.0493595 L104.373711,20.1729483 L102.126534,20.1729483 L103.250122,19.0493595 Z M83.7441976,24.5167848 L100.568879,21.1518485 L100.130044,24.5167848 L83.7441976,24.5167848 Z M80.2064829,39.7212728 L98.8612364,34.2443076 L98.1468035,39.7212728 L80.2064829,39.7212728 Z M95.1560434,69.3675863 L96.8626264,56.2846672 L102.632149,61.9831702 L95.1560434,69.3675863 Z M109.637619,56.2846672 L111.344202,69.3675863 L103.868096,61.9837002 L109.637619,56.2846672 Z M107.639009,34.2443076 L126.293762,39.7212728 L108.353441,39.7212728 L107.639009,34.2443076 Z" id="Shape-Copy-5"></path>
            <path d="M71.9938,69.0658769 C71.99164,69.0241168 71.9801199,68.9859566 71.9693199,68.9456365 C71.9599598,68.9103563 71.9527598,68.8757962 71.9369198,68.8433961 C71.9203597,68.8095559 71.8965996,68.7807558 71.8749995,68.7505157 C71.8519594,68.7202756 71.8310793,68.6900355 71.8029992,68.6641154 C71.7770791,68.6396353 71.745399,68.6230752 71.7144389,68.6043551 C71.6798788,68.582755 71.6460386,68.561155 71.6064385,68.5474749 C71.5956384,68.5438749 71.5877184,68.5345149 71.5761983,68.5316348 L41.7954425,59.7879208 L40.3928771,49.032519 L64.9183325,49.032519 L64.9183325,54.3439797 C64.9183325,54.6701409 65.1825735,54.934382 65.5080147,54.934382 C65.833456,54.934382 66.098417,54.6701409 66.098417,54.3439797 L66.098417,48.4421167 C66.098417,48.4241166 66.089777,48.4082766 66.088337,48.3902765 C66.084017,48.3492364 66.076097,48.3117962 66.0645769,48.2729161 C66.0537769,48.2369159 66.0415368,48.2037958 66.0242568,48.1713957 C66.0069767,48.1375555 65.9853766,48.1080354 65.9623365,48.0785153 C65.9378564,48.0482752 65.9140963,48.0216351 65.8852962,47.997155 C65.8572161,47.9733949 65.826976,47.9546748 65.7945759,47.9366748 C65.7600157,47.9165147 65.7247356,47.9006746 65.6851354,47.8884346 C65.6678554,47.8826745 65.6548953,47.8711545 65.6368953,47.8668345 L39.2466326,42.0016917 L36.4177416,39.1728007 C36.1873407,38.9423998 35.8136593,38.9423998 35.5832584,39.1728007 L32.7586874,41.9973717 L3.42577332,47.8639545 C3.40417324,47.8682745 3.38761317,47.8812345 3.36673309,47.8877146 C3.33289296,47.8985146 3.30193284,47.9100346 3.27097272,47.9265947 C3.23497258,47.9453148 3.20329246,47.9676349 3.17305234,47.992835 C3.14713224,48.0137151 3.12337215,48.0345951 3.10177206,48.0597952 C3.07441196,48.0900353 3.05425188,48.1238755 3.0340918,48.1598756 C3.01825174,48.1886757 3.00241168,48.2153158 2.99089163,48.246996 C2.97649158,48.2873161 2.97073155,48.3290763 2.96569153,48.3729965 C2.96281152,48.3967565 2.95129148,48.4183566 2.95129148,48.4428367 L2.95129148,54.3446997 C2.95129148,54.6708609 3.2155325,54.935102 3.54169377,54.935102 C3.86785504,54.935102 4.13209607,54.6708609 4.13209607,54.3446997 L4.13209607,49.033239 L31.6081229,49.033239 L30.2055575,59.7886408 L0.424081649,68.5323548 C0.412561604,68.5352349 0.405361576,68.5445949 0.393841532,68.5481949 C0.354241378,68.562595 0.320401246,68.583475 0.285841112,68.6050751 C0.254880991,68.6237952 0.223200868,68.6410753 0.196560764,68.6648354 C0.168480655,68.6900355 0.148320577,68.7209956 0.124560484,68.7512357 C0.102240398,68.7814758 0.079200308,68.8102759 0.0626402436,68.8441161 C0.0475201848,68.8757962 0.039600154,68.9110763 0.0302401176,68.9463565 C0.0187200728,68.9859566 0.0086400336,69.0241168 0.0057600224,69.0665969 C0.0057600224,69.076677 0,69.086757 0,69.098277 L0,75.00014 C0,75.3263013 0.264241028,75.5905423 0.590402296,75.5905423 C0.916563564,75.5905423 1.18008459,75.3263013 1.18008459,75.00014 L1.18008459,69.6886793 L28.9131524,69.6886793 L23.6117718,110.333557 C23.6103318,110.345797 23.6146518,110.357317 23.6146518,110.369558 C23.6117718,110.410598 23.6168118,110.449478 23.6232919,110.490518 C23.6283319,110.526518 23.6312119,110.562518 23.6427319,110.596358 C23.654252,110.630199 23.6729721,110.660439 23.6909721,110.692119 C23.7111322,110.728839 23.7305723,110.763399 23.7579324,110.794359 C23.7658524,110.803719 23.7687324,110.815239 23.7773725,110.824599 C23.7946525,110.841879 23.8176926,110.849079 23.8364127,110.864199 C23.8688128,110.89012 23.9012129,110.9146 23.9393731,110.93332 C23.9760932,110.95132 24.0128134,110.9614 24.0509735,110.97148 C24.0754536,110.97796 24.0956137,110.99164 24.1208138,110.99524 C24.1467339,110.99884 24.171214,111.00028 24.1964141,111.00028 C24.1964141,111.00028 24.1964141,111.00028 24.1964141,111.00028 C24.1964141,111.00028 24.1964141,111.00028 24.1971341,111.00028 C24.2720144,111.00028 24.3447347,110.98516 24.4109749,110.95852 C24.426815,110.95204 24.439775,110.9398 24.4556151,110.93188 C24.5067353,110.90668 24.5556955,110.87788 24.5967357,110.838999 C24.6003357,110.835399 24.6060957,110.833959 24.6111357,110.829639 L36.00014,99.5810356 L47.3884243,110.830359 C47.3927443,110.833959 47.3985043,110.835399 47.4028243,110.839719 C47.4445845,110.8786 47.4928247,110.9074 47.5439449,110.9326 C47.5590649,110.94052 47.572745,110.95276 47.5885851,110.95924 C47.6555453,110.98588 47.7275456,111.001 47.8024259,111.001 C47.8024259,111.001 47.8024259,111.001 47.8031459,111.001 C47.8038659,111.001 47.8031459,111.001 47.8031459,111.001 C47.828346,111.001 47.8535461,110.99956 47.8787462,110.99596 C47.9039463,110.99308 47.9241064,110.97868 47.9478665,110.9722 C47.9867466,110.96212 48.0234668,110.95204 48.0601869,110.93404 C48.098347,110.91532 48.1300272,110.89084 48.1631473,110.864919 C48.1818674,110.849799 48.2049075,110.842599 48.2221875,110.825319 C48.2308276,110.815959 48.2337076,110.805159 48.2416276,110.795079 C48.2697077,110.764119 48.2884278,110.729559 48.3085879,110.692839 C48.3265879,110.661159 48.345308,110.630919 48.3568281,110.597078 C48.3683481,110.563238 48.3719481,110.527238 48.3762681,110.491238 C48.3820281,110.450198 48.3877882,110.411318 48.3849082,110.370278 C48.3849082,110.358037 48.3892282,110.346517 48.3870682,110.334277 L43.0856876,69.6893993 L70.8187554,69.6893993 L70.8187554,75.00014 C70.8187554,75.3263013 71.0829964,75.5905423 71.4084377,75.5905423 C71.733879,75.5905423 72.00028,75.3263013 72.00028,75.00014 L72.00028,69.098277 C72.00028,69.086757 71.99452,69.076677 71.9938,69.0658769 Z M35.2621371,77.6339102 L27.766188,87.607389 L29.9830766,70.6102829 L35.2621371,77.6339102 Z M30.7671596,69.6886793 L41.2331203,69.6886793 L36.00014,76.6518264 L30.7671596,69.6886793 Z M36.00014,78.6159941 L44.3276924,89.6961171 L36.00014,97.9214291 L27.6725876,89.6961171 L36.00014,78.6159941 Z M36.7381429,77.6339102 L42.0172034,70.6102829 L44.234092,87.607389 L36.7381429,77.6339102 Z M30.2573977,68.5078748 L31.2574816,60.8355249 L40.7413584,60.8355249 L41.7421623,68.5078748 L30.2573977,68.5078748 Z M36.7417429,53.3323757 L39.3207929,49.9426026 L40.3878371,58.1254344 L36.7417429,53.3323757 Z M40.0695958,59.6554403 L31.9306842,59.6554403 L36.00014,54.3072595 L40.0695958,59.6554403 Z M36.00014,52.3574919 L33.4700502,49.032519 L38.5295098,49.032519 L36.00014,52.3574919 Z M32.9523681,47.8524344 L33.5672505,43.1313761 L38.4330295,43.1313761 L39.0479119,47.8524344 L32.9523681,47.8524344 Z M35.2585371,53.3323757 L31.6124429,58.1254344 L32.6794871,49.9426026 L35.2585371,53.3323757 Z M39.6447942,43.2998567 L60.1324738,47.8524344 L40.2387965,47.8524344 L39.6447942,43.2998567 Z M36.00014,40.4248855 L37.5265459,41.9512915 L34.4737341,41.9512915 L36.00014,40.4248855 Z M9.50115695,47.8524344 L32.3576458,43.2811366 L31.7614835,47.8524344 L9.50115695,47.8524344 Z M4.69513826,68.5078748 L30.0377968,61.0673658 L29.067233,68.5078748 L4.69513826,68.5078748 Z M25.0042572,108.782671 L27.3226663,91.0094023 L35.1606167,98.7508724 L25.0042572,108.782671 Z M44.6776137,91.0094023 L46.9960228,108.782671 L36.8396633,98.7515924 L44.6776137,91.0094023 Z M41.9624832,61.0673658 L67.3051417,68.5078748 L42.933047,68.5078748 L41.9624832,61.0673658 Z" id="Shape-Copy-7"></path>
            <path d="M181.496965,16.7034505 C181.495765,16.6802502 181.489365,16.6590499 181.483365,16.6366495 C181.478165,16.6170492 181.474165,16.597849 181.465364,16.5798487 C181.456164,16.5610484 181.442964,16.5450482 181.430964,16.5282479 C181.418164,16.5114477 181.406564,16.4946474 181.390963,16.4802472 C181.376563,16.466647 181.358963,16.4574469 181.341763,16.4470467 C181.322562,16.4350465 181.303762,16.4230463 181.281762,16.4154462 C181.275762,16.4134462 181.271362,16.4082461 181.264961,16.4066461 L164.719913,11.5489732 L163.940702,5.5736836 L177.566106,5.5736836 L177.566106,8.52452786 C177.566106,8.70573058 177.712908,8.85253278 177.893711,8.85253278 C178.074514,8.85253278 178.221716,8.70573058 178.221716,8.52452786 L178.221716,5.24567868 C178.221716,5.23567853 178.216916,5.2268784 178.216116,5.21687825 C178.213716,5.19407791 178.209316,5.1732776 178.202916,5.15167727 C178.196915,5.13167697 178.190115,5.1132767 178.180515,5.09527643 C178.170915,5.07647615 178.158915,5.0600759 178.146115,5.04367565 C178.132514,5.0268754 178.119314,5.01207518 178.103314,4.99847498 C178.087714,4.98527478 178.070914,4.97487462 178.052913,4.96487447 C178.033713,4.9536743 178.014113,4.94487417 177.992112,4.93807407 C177.982512,4.93487402 177.975312,4.92847393 177.965312,4.92607389 L163.303892,1.66762501 L161.732268,0.09600144 C161.604267,-0.03200048 161.396663,-0.03200048 161.268662,0.09600144 L159.699438,1.66522498 L143.403194,4.92447387 C143.391193,4.9268739 143.381993,4.93407401 143.370393,4.93767406 C143.351593,4.94367415 143.334393,4.95007425 143.317192,4.95927439 C143.297192,4.96967454 143.279592,4.98207473 143.262791,4.99607494 C143.248391,5.00767511 143.235191,5.01927529 143.223191,5.0332755 C143.207991,5.05007575 143.19679,5.06887603 143.18559,5.08887633 C143.17679,5.10487657 143.16799,5.11967679 143.16159,5.13727706 C143.15359,5.15967739 143.15039,5.18287774 143.14759,5.20727811 C143.14599,5.22047831 143.13959,5.23247849 143.13959,5.24607869 L143.13959,8.52492787 C143.13959,8.70613059 143.286392,8.85293279 143.467595,8.85293279 C143.648797,8.85293279 143.795599,8.70613059 143.795599,8.52492787 L143.795599,5.57408361 L159.060228,5.57408361 L158.281017,11.5493732 L141.735569,16.4070461 C141.729168,16.4086461 141.725168,16.4138462 141.718768,16.4158462 C141.696768,16.4238464 141.677968,16.4354465 141.658767,16.4474467 C141.641567,16.4578469 141.623967,16.467447 141.609167,16.4806472 C141.593566,16.4946474 141.582366,16.5118477 141.569166,16.5286479 C141.556766,16.5454482 141.543966,16.5614484 141.534766,16.5802487 C141.526365,16.597849 141.521965,16.6174493 141.516765,16.6370495 C141.510365,16.6590499 141.504765,16.6802502 141.503165,16.7038506 C141.503165,16.7094506 141.499965,16.7150507 141.499965,16.7214508 L141.499965,20.0003 C141.499965,20.1815027 141.646767,20.3283049 141.82797,20.3283049 C142.009173,20.3283049 142.155575,20.1815027 142.155575,20.0003 L142.155575,17.0494557 L157.563006,17.0494557 L154.617762,39.6301944 C154.616962,39.6369945 154.619362,39.6433946 154.619362,39.6501947 C154.617762,39.6729951 154.620562,39.6945954 154.624162,39.7173957 C154.626962,39.737396 154.628562,39.7573963 154.634962,39.7761966 C154.641362,39.7949969 154.651762,39.8117972 154.661762,39.8293974 C154.672963,39.8497977 154.683763,39.868998 154.698963,39.8861983 C154.703363,39.8913984 154.704963,39.8977985 154.709763,39.9029985 C154.719363,39.9125987 154.732163,39.9165987 154.742564,39.9249989 C154.760564,39.9393991 154.778564,39.9529993 154.799764,39.9633994 C154.820165,39.9733996 154.840565,39.9789997 154.861765,39.9845998 C154.875366,39.9881998 154.886566,39.9957999 154.900566,39.9978 C154.914966,39.9998 154.928566,40.0006 154.942567,40.0006 C154.942567,40.0006 154.942567,40.0006 154.942567,40.0006 C154.942567,40.0006 154.942567,40.0006 154.942967,40.0006 C154.984567,40.0006 155.024968,39.9921999 155.061768,39.9773996 C155.070569,39.9737996 155.077769,39.9669995 155.086569,39.9625994 C155.114969,39.9485992 155.14217,39.932599 155.16497,39.9109987 C155.16697,39.9089986 155.17017,39.9081986 155.17297,39.9057986 L161.500265,33.6565048 L167.82716,39.9061986 C167.82956,39.9081986 167.83276,39.9089986 167.83516,39.9113987 C167.85836,39.932999 167.885161,39.9489992 167.913561,39.9629994 C167.921961,39.9673995 167.929561,39.9741996 167.938362,39.9777997 C167.975562,39.9925999 168.015563,40.001 168.057163,40.001 C168.057163,40.001 168.057163,40.001 168.057563,40.001 C168.057963,40.001 168.057563,40.001 168.057563,40.001 C168.071564,40.001 168.085564,40.0002 168.099564,39.9982 C168.113564,39.9965999 168.124764,39.9885998 168.137965,39.9849998 C168.159565,39.9793997 168.179965,39.9737996 168.200365,39.9637994 C168.221566,39.9533993 168.239166,39.9397991 168.257566,39.9253989 C168.267967,39.9169987 168.280767,39.9129987 168.290367,39.9033985 C168.295167,39.8981985 168.296767,39.8921984 168.301167,39.8865983 C168.316767,39.869398 168.327167,39.8501977 168.338368,39.8297974 C168.348368,39.8121972 168.358768,39.7953969 168.365168,39.7765966 C168.371568,39.7577964 168.373568,39.7377961 168.375968,39.7177958 C168.379168,39.6949954 168.382368,39.6733951 168.380768,39.6505947 C168.380768,39.6437946 168.383168,39.6373945 168.381968,39.6305944 L165.436724,17.0498557 L180.844155,17.0498557 L180.844155,20.0003 C180.844155,20.1815027 180.990957,20.3283049 181.17176,20.3283049 C181.352563,20.3283049 181.500565,20.1815027 181.500565,20.0003 L181.500565,16.7214508 C181.500565,16.7150507 181.497365,16.7094506 181.496965,16.7034505 Z M161.090259,21.4635219 L156.925796,27.0044051 L158.157415,17.5614634 L161.090259,21.4635219 Z M158.593021,17.0494557 L164.407509,17.0494557 L161.500265,20.9179138 L158.593021,17.0494557 Z M161.500265,22.0091301 L166.126734,28.1648225 L161.500265,32.734491 L156.873796,28.1648225 L161.500265,22.0091301 Z M161.910271,21.4635219 L164.843115,17.5614634 L166.074734,27.0044051 L161.910271,21.4635219 Z M158.309817,16.3934459 L158.865425,12.130982 L164.134305,12.130982 L164.690313,16.3934459 L158.309817,16.3934459 Z M161.912271,7.96251943 L163.345093,6.07929119 L163.937902,10.6253594 L161.912271,7.96251943 Z M163.761099,11.4753721 L159.239431,11.4753721 L161.500265,8.50412756 L163.761099,11.4753721 Z M161.500265,7.42091131 L160.094644,5.5736836 L162.905486,5.5736836 L161.500265,7.42091131 Z M159.80704,4.91807377 L160.148645,2.29523443 L162.851885,2.29523443 L163.19349,4.91807377 L159.80704,4.91807377 Z M161.088259,7.96251943 L159.062628,10.6253594 L159.655437,6.07929119 L161.088259,7.96251943 Z M163.525095,2.38883583 L174.907266,4.91807377 L163.8551,4.91807377 L163.525095,2.38883583 Z M161.500265,0.791611874 L162.348278,1.63962459 L160.652252,1.63962459 L161.500265,0.791611874 Z M146.778444,4.91807377 L159.476635,2.37843568 L159.14543,4.91807377 L146.778444,4.91807377 Z M144.108404,16.3934459 L158.187815,12.2597839 L157.648607,16.3934459 L144.108404,16.3934459 Z M155.391373,38.7685815 L156.679393,28.8944334 L161.033858,33.1952979 L155.391373,38.7685815 Z M166.321137,28.8944334 L167.609157,38.7685815 L161.966672,33.1956979 L166.321137,28.8944334 Z M164.812715,12.2597839 L178.892126,16.3934459 L165.351923,16.3934459 L164.812715,12.2597839 Z" id="Shape-Copy-6"></path>
        </g>
        <g id="Group-5" transform="translate(276.000000, 546.000000)" fill="#C89CA1" fill-rule="nonzero">
            <path d="M148.130501,45.9342793 C148.215143,46.0064684 148.208264,46.0123353 148.20406,46.0189676 C148.185792,46.0332523 143.7624,47.0744244 134.933885,49.1424837 L144.579745,52.9529437 L162.632955,52.9529437 L157.359575,51.0711815 C157.035752,50.955628 156.967914,50.8620118 157.207471,50.8620118 C157.447029,50.8620118 157.904413,50.955628 158.228236,51.0711815 L164.087785,53.1621135 C164.258655,53.2348127 164.282528,53.2465466 164.301976,53.2580254 C164.375598,53.3281738 164.371924,53.334806 164.365946,53.3411831 C164.339502,53.3539374 159.789657,54.054826 150.716413,55.443849 L151.442673,56.446078 C151.501824,56.5277052 151.226756,56.5277052 150.828409,56.446078 L145.94492,55.4453795 L118.528414,53.3669467 C118.307188,53.3381221 118.261708,53.3302145 118.214429,53.3212865 C118.045316,53.28685 117.996879,53.274861 117.946297,53.2621068 C117.777371,53.2169567 117.73167,53.2021618 117.684355,53.1866016 C117.667215,53.1809897 115.687385,52.4757647 111.744866,51.0709264 C111.421043,50.9553729 111.353205,50.8617567 111.593293,50.8617567 C111.83338,50.8617567 112.290235,50.9553729 112.614058,51.0709264 L117.887437,52.9526886 L138.112565,52.9526886 L126.401845,49.1422286 L95.7986491,46.0444761 C95.5833155,46.0120803 95.5428396,46.0059582 95.4996401,45.9975404 C95.3144066,45.9562166 95.2688531,45.9460132 95.2230657,45.9340242 C95.0499124,45.8837725 95.0046059,45.870253 94.9603104,45.855203 C94.9536385,45.8528222 92.9885578,45.1521036 89.0650683,43.7530473 C88.7412455,43.6374938 88.673407,43.5438776 88.9134946,43.5438776 C89.1535822,43.5438776 89.6099068,43.6374938 89.9337296,43.7530473 L95.2071094,45.6348095 L115.621445,45.6348095 L71.3656226,31.2350049 C71.1862351,31.1666421 71.1526131,31.1538878 71.1274955,31.1418988 C71.0122505,31.0684344 71.002933,31.064353 71,31.0610369 C71.1896852,30.9987961 71.2582264,31.0041529 71.333435,31.0135911 C71.4553928,31.0319572 71.5200261,31.0421606 71.5888372,31.0559352 C71.5929866,31.0567855 78.116755,32.3862886 91.1601422,35.0444446 L88.3743975,31.0589962 C88.528807,30.9985411 88.5487865,30.9990512 88.5709105,31.0003267 C88.812621,31.0288962 88.8602454,31.0375691 88.9103594,31.0467521 C89.0888763,31.082464 89.1369685,31.0947081 89.1882653,31.1077175 C89.3609262,31.1536328 89.3993182,31.166387 89.4382402,31.1791413 C89.5306438,31.2106017 101.735612,36.0290728 126.053146,45.6345544 L146.467482,45.6345544 L141.194817,43.7530473 C140.870994,43.6374938 140.803156,43.5438776 141.042713,43.5438776 C141.282271,43.5438776 141.740715,43.6374938 142.064538,43.7530473 L147.924087,45.8439792 C148.080981,45.9105564 148.109994,45.9228005 148.130501,45.9342793 Z M112.406671,42.8199463 L96.9869235,39.2865085 L115.494021,45.3083007 L112.406671,42.8199463 Z M116.986182,45.6348095 L124.690185,45.6348095 L113.924959,43.1678823 L116.986182,45.6348095 Z M111.974873,42.4720103 L107.104109,38.5465069 L92.80785,35.6324156 L94.8442713,38.5465069 L111.974873,42.4720103 Z M113.493161,42.8199463 L124.352353,45.3083007 L109.108962,39.2865085 L113.493161,42.8199463 Z M117.783284,46.0531489 L126.136789,48.771335 L133.117879,48.771335 L126.23723,46.0531489 L117.783284,46.0531489 Z M137.623113,51.429576 L142.887024,52.6305163 L135.548312,49.731475 L137.623113,51.429576 Z M133.795018,49.1894193 L127.803958,49.1894193 L136.109325,51.0841909 L133.795018,49.1894193 Z M138.045113,51.7749611 L139.483846,52.9529437 L143.208119,52.9529437 L138.045113,51.7749611 Z M140.274404,53.3710281 L145.41423,55.0436206 L148.995934,55.0436206 L144.761339,53.3710281 L140.274404,53.3710281 Z M136.531324,51.429576 L129.088737,49.731475 L137.998353,52.6305163 L136.531324,51.429576 Z M149.720642,54.9839307 L160.281704,53.3710281 L145.63795,53.3710281 L149.720642,54.9839307 Z M149.892168,56.0024852 L149.500294,55.4617049 L147.253117,55.4617049 L149.892168,56.0024852 Z M123.011946,53.3710281 L144.375152,54.9905629 L139.397793,53.3710281 L123.011946,53.3710281 Z M98.9668822,46.0531489 L125.008799,48.6891976 L116.907203,46.0531489 L98.9668822,46.0531489 Z M73.9303992,31.784458 L93.2828245,38.0812318 L91.3663797,35.3385576 L73.9303992,31.784458 Z M106.057817,38.0812318 L90.1185573,31.784458 L92.6016125,35.3383026 L106.057817,38.0812318 Z M133.786572,48.6891976 L145.054161,46.0531489 L127.113841,46.0531489 L133.786572,48.6891976 Z" id="Shape-Copy-5"></path>
            <path d="M105.145231,90.7711573 C105.260217,90.8692269 105.250872,90.8771972 105.245161,90.8862071 C105.220344,90.9056131 99.211124,92.3200551 87.2175026,95.1295332 L100.321495,100.306079 L124.84695,100.306079 L117.683014,97.7496874 C117.243098,97.5927069 117.150939,97.4655284 117.47638,97.4655284 C117.801821,97.4655284 118.423183,97.5927069 118.863099,97.7496874 L126.823352,100.590238 C127.05548,100.689001 127.087911,100.704941 127.114332,100.720536 C127.214348,100.815833 127.209357,100.824843 127.201235,100.833506 C127.165311,100.850833 120.984304,101.802997 108.658216,103.689997 L109.644847,105.051535 C109.725204,105.162426 109.351522,105.162426 108.810364,105.051535 L102.176098,103.692077 L64.9305155,100.868506 C64.6299785,100.829348 64.5681937,100.818605 64.5039645,100.806476 C64.2742232,100.759694 64.2084206,100.743407 64.1397046,100.72608 C63.9102165,100.664743 63.8481317,100.644644 63.7838534,100.623506 C63.7605688,100.615882 61.0709518,99.6578269 55.7150022,97.7493409 C55.2750858,97.5923604 55.1829266,97.4651819 55.5090879,97.4651819 C55.8352492,97.4651819 56.4558904,97.5923604 56.8958068,97.7493409 L64.0597429,100.305733 L91.5357698,100.305733 L75.6266464,95.1291867 L34.0519158,90.9208606 C33.7593832,90.8768506 33.7043962,90.8685338 33.6457092,90.8570981 C33.3940678,90.8009594 33.332183,90.787098 33.2699804,90.7708108 C33.03475,90.7025433 32.9732007,90.684177 32.9130247,90.6637314 C32.903961,90.660497 30.2343803,89.7085643 24.9042828,87.8079331 C24.4643664,87.6509525 24.3722072,87.523774 24.6983684,87.523774 C25.0245297,87.523774 25.644451,87.6509525 26.0843674,87.8079331 L33.2483035,90.3643248 L60.9813713,90.3643248 L0.859418773,70.8020543 C0.615719262,70.7091828 0.570043382,70.6918561 0.535920889,70.6755689 C0.379359437,70.5757667 0.366701563,70.5702221 0.362717065,70.5657172 C0.620406241,70.4811625 0.713519998,70.4884398 0.815691614,70.5012616 C0.98137247,70.5262122 1.06917737,70.5400736 1.16265789,70.5587865 C1.16829496,70.5599416 10.0308958,72.3660842 27.7504604,75.9772142 L23.9659999,70.5629449 C24.1757667,70.480816 24.2029091,70.4815091 24.2329648,70.4832418 C24.5613308,70.5220537 24.6260289,70.5338359 24.6941093,70.5463112 C24.9366262,70.5948262 25.0019599,70.6114599 25.071647,70.6291332 C25.3062085,70.6915095 25.3583644,70.7088363 25.4112403,70.7261631 C25.5367715,70.7689024 42.1173365,77.3148408 75.1529353,90.3639782 L102.886003,90.3639782 L95.7230382,87.8079331 C95.2831218,87.6509525 95.1909626,87.523774 95.5164038,87.523774 C95.8418451,87.523774 96.4646464,87.6509525 96.9045628,87.8079331 L104.864816,90.6484838 C105.077957,90.7389296 105.117371,90.7555633 105.145231,90.7711573 Z M56.6140709,86.5403065 L35.6661977,81.740098 L60.8082647,89.9207594 L56.6140709,86.5403065 Z M62.8353786,90.3643248 L73.3013393,90.3643248 L58.6766785,87.0129808 L62.8353786,90.3643248 Z M56.0274691,86.0676322 L49.4104894,80.7347988 L29.988887,76.7759783 L32.7553846,80.7347988 L56.0274691,86.0676322 Z M58.0900767,86.5403065 L72.8423915,89.9207594 L52.1341018,81.740098 L58.0900767,86.5403065 Z M63.9182498,90.9326428 L75.2665652,94.6253242 L84.750442,94.6253242 L75.4030145,90.9326428 L63.9182498,90.9326428 Z M90.8708453,98.2365697 L98.021918,99.8680584 L88.0522081,95.9296835 L90.8708453,98.2365697 Z M85.6703415,95.1932957 L77.5314299,95.1932957 L88.8143489,97.7673607 L85.6703415,95.1932957 Z M91.4441359,98.7057786 L93.3986682,100.306079 L98.4581278,100.306079 L91.4441359,98.7057786 Z M94.4726482,100.874051 L101.45515,103.146283 L106.320929,103.146283 L100.568192,100.874051 L94.4726482,100.874051 Z M89.3876395,98.2365697 L79.276814,95.9296835 L91.3806122,99.8680584 L89.3876395,98.2365697 Z M107.305452,103.065194 L121.652754,100.874051 L101.759077,100.874051 L107.305452,103.065194 Z M107.538472,104.44891 L107.006108,103.714255 L103.953296,103.714255 L107.538472,104.44891 Z M71.021437,100.874051 L100.043553,103.074204 L93.2817636,100.874051 L71.021437,100.874051 Z M38.3559904,90.9326428 L73.7341805,94.5137398 L62.7280852,90.9326428 L38.3559904,90.9326428 Z M4.34369197,71.5484916 L30.6341443,80.1027182 L28.030636,76.3767695 L4.34369197,71.5484916 Z M47.9890918,80.1027182 L26.3354575,71.5484916 L29.7087114,76.3764229 L47.9890918,80.1027182 Z M85.6588668,94.5137398 L100.965994,90.9326428 L76.5938991,90.9326428 L85.6588668,94.5137398 Z" id="Shape-Copy-7"></path>
            <path d="M190.213155,11.271436 C190.277036,11.3259197 190.271845,11.3303477 190.268672,11.3353532 C190.254884,11.3461345 186.916392,12.1319443 180.253195,13.6927828 L187.533271,16.5686736 L201.158676,16.5686736 L197.178667,15.1484402 C196.934266,15.0612278 196.883066,14.9905723 197.063869,14.9905723 C197.244672,14.9905723 197.589876,15.0612278 197.834277,15.1484402 L202.256689,16.7265415 C202.38565,16.7814102 202.403668,16.7902662 202.418346,16.7989297 C202.473912,16.8518732 202.471139,16.8568788 202.466626,16.8616918 C202.446668,16.8713179 199.012738,17.4003037 192.164835,18.4486491 L192.712969,19.2050673 C192.757612,19.2666743 192.550009,19.2666743 192.249362,19.2050673 L188.563618,18.4498042 L167.871398,16.8811365 C167.704431,16.8593816 167.670106,16.8534134 167.634422,16.8466751 C167.506787,16.8206847 167.470229,16.8116362 167.432053,16.8020101 C167.304559,16.7679337 167.270067,16.7567674 167.234356,16.7450236 C167.22142,16.7407881 165.727172,16.2085295 162.751611,15.1482477 C162.50721,15.0610353 162.45601,14.9903798 162.637213,14.9903798 C162.818416,14.9903798 163.16322,15.0610353 163.407621,15.1482477 L167.38763,16.5684811 L182.652259,16.5684811 L173.813759,13.6925903 L150.716429,11.3546054 C150.55391,11.3301551 150.523361,11.3255346 150.490757,11.3191814 C150.350954,11.2879929 150.316573,11.280292 150.282016,11.2712435 C150.151331,11.2333167 150.117137,11.223113 150.083705,11.2117542 C150.07867,11.2099574 148.595553,10.6810999 145.634355,9.62518198 C145.389954,9.5379696 145.338754,9.46731409 145.519957,9.46731409 C145.701159,9.46731409 146.045564,9.5379696 146.289964,9.62518198 L150.269973,11.0454154 L165.677404,11.0454154 L132.275948,0.177366609 C132.140558,0.125770763 132.115183,0.116144673 132.096225,0.107096147 C132.009246,0.0516498657 132.002214,0.0485695167 132,0.0460667332 C132.143162,-0.000908588779 132.194893,0.00313436926 132.251655,0.0102576763 C132.343701,0.0241192467 132.392482,0.0318201192 132.444417,0.042216297 C132.447548,0.0428580363 137.37127,1.04628172 147.215582,3.05248734 L145.113081,0.0445265587 C145.229619,-0.00110111059 145.244698,-0.000716066968 145.261396,0.000246542089 C145.443824,0.021808985 145.479767,0.0283547265 145.51759,0.0352855118 C145.652323,0.0622385654 145.68862,0.0714796123 145.727336,0.0812982247 C145.857649,0.115952151 145.886625,0.125578241 145.916001,0.135204332 C145.985741,0.158948689 155.197269,3.79562153 173.550583,11.0452229 L188.958014,11.0452229 L184.978545,9.62518198 C184.734144,9.5379696 184.682944,9.46731409 184.863747,9.46731409 C185.044549,9.46731409 185.390554,9.5379696 185.634955,9.62518198 L190.057366,11.2032833 C190.17578,11.2535315 190.197676,11.2627725 190.213155,11.271436 Z M163.251099,8.92093719 L151.613263,6.25412506 L165.581233,10.7989875 L163.251099,8.92093719 Z M166.70742,11.0454154 L172.521907,11.0454154 L164.397005,9.18353694 L166.70742,11.0454154 Z M162.925206,8.65833744 L159.249065,5.69561929 L148.459166,3.49625011 L149.996126,5.69561929 L162.925206,8.65833744 Z M164.071112,8.92093719 L172.266933,10.7989875 L160.7622,6.25412506 L164.071112,8.92093719 Z M167.309022,11.3611512 L173.613711,13.4126636 L178.88259,13.4126636 L173.689517,11.3611512 L167.309022,11.3611512 Z M182.282852,15.4189334 L186.255714,16.3253261 L180.716925,14.1373157 L182.282852,15.4189334 Z M179.393651,13.7282068 L174.871983,13.7282068 L181.140341,15.1582588 L179.393651,13.7282068 Z M182.60135,15.6796079 L183.687214,16.5686736 L186.498056,16.5686736 L182.60135,15.6796079 Z M184.283876,16.8842169 L188.163087,18.1465824 L190.866327,18.1465824 L187.670327,16.8842169 L184.283876,16.8842169 Z M181.45884,15.4189334 L175.841652,14.1373157 L182.566059,16.3253261 L181.45884,15.4189334 Z M191.413291,18.1015323 L199.384103,16.8842169 L188.331937,16.8842169 L191.413291,18.1015323 Z M191.542747,18.8702719 L191.246986,18.4621256 L189.550961,18.4621256 L191.542747,18.8702719 Z M171.255281,16.8842169 L187.378857,18.1065379 L183.622266,16.8842169 L171.255281,16.8842169 Z M153.107609,11.3611512 L172.762377,13.3506716 L166.647812,11.3611512 L153.107609,11.3611512 Z M134.211677,0.59205859 L148.817646,5.3444595 L147.371237,3.27446499 L134.211677,0.59205859 Z M158.459391,5.3444595 L146.429461,0.59205859 L148.303511,3.27427247 L158.459391,5.3444595 Z M179.387276,13.3506716 L187.89133,11.3611512 L174.351127,11.3611512 L179.387276,13.3506716 Z" id="Shape-Copy-6"></path>
        </g>
        <g id="kihvad" transform="translate(732.500000, 722.500000) scale(1, -1) translate(-732.500000, -722.500000) translate(-39.000000, -24.000000)">
            <polygon id="Path-7" fill="url(#linearGradient-8)" transform="translate(854.250000, 1022.250000) scale(-1, -1) translate(-854.250000, -1022.250000) " points="1134.5 560.995725 1062.5 1492.5 930.5 1485.5 574 552"></polygon>
            <polygon id="Path-7" fill="url(#linearGradient-9)" transform="translate(1262.250000, 1012.250000) scale(1, -1) translate(-1262.250000, -1012.250000) " points="1542.5 550.995725 1470.5 1482.5 1338.5 1475.5 982 542"></polygon>
            <g id="Group-4">
                <polygon id="Path-7-Copy-2" fill="url(#linearGradient-10)" transform="translate(254.500000, 1004.500000) scale(-1, -1) translate(-254.500000, -1004.500000) " points="509 528.48954 361 1482 202 1474.5 -4.54747351e-13 527"></polygon>
                <polygon id="Path-7-Copy-3" fill="url(#linearGradient-11)" transform="translate(431.500000, 477.500000) scale(-1, -1) translate(-431.500000, -477.500000) " points="686 1.4895404 538 955 379 947.5 177 0"></polygon>
            </g>
        </g>
    </g>
</svg>